<svg xmlns="http://www.w3.org/2000/svg" width="1000" height="620" viewBox="0 0 1000 620">
  <defs>
    <marker id="arrow" markerWidth="10" markerHeight="10" refX="8" refY="3" orient="auto"><path d="M0,0 L0,6 L9,3 z" fill="#555"/></marker>
    <style>.title{font:700 22px Arial,sans-serif;fill:#111}.head{font:700 15px Arial,sans-serif;fill:#111}.node{font:700 12px Arial,sans-serif;fill:#111;text-anchor:middle;dominant-baseline:middle}.col{fill:#fff;stroke:#333;stroke-width:2}.off{fill:#f5f5f5;stroke:#aaa;stroke-width:1}.aff{fill:#d9f7d2;stroke:#333;stroke-width:1.7}.line{stroke:#555;stroke-width:1.3;stroke-dasharray:4 3;fill:none;marker-end:url(#arrow)}.group{fill:none;stroke:#555;stroke-width:2}</style>
  </defs>
  <rect width="1000" height="620" fill="#fff"/><text x="40" y="38" class="title">D4 Affected-Part Traceability Graph</text>
  <rect x="45" y="80" width="150" height="470" class="col"/><text x="120" y="580" class="head" text-anchor="middle">Requirements</text>
  <rect x="285" y="80" width="150" height="470" class="col"/><text x="360" y="580" class="head" text-anchor="middle">Design</text>
  <rect x="525" y="80" width="150" height="470" class="col"/><text x="600" y="580" class="head" text-anchor="middle">Code</text>
  <rect x="765" y="80" width="150" height="470" class="col"/><text x="840" y="580" class="head" text-anchor="middle">Test</text>
  <g>
    <circle cx="120" cy="120" r="20" class="aff"/><text x="120" y="120" class="node">R01</text><circle cx="120" cy="160" r="20" class="aff"/><text x="120" y="160" class="node">R02</text><circle cx="120" cy="200" r="20" class="aff"/><text x="120" y="200" class="node">R03</text><circle cx="120" cy="240" r="20" class="aff"/><text x="120" y="240" class="node">R04</text><circle cx="120" cy="280" r="20" class="aff"/><text x="120" y="280" class="node">R05</text><circle cx="120" cy="320" r="20" class="aff"/><text x="120" y="320" class="node">R06</text><circle cx="120" cy="360" r="20" class="aff"/><text x="120" y="360" class="node">R07</text><circle cx="120" cy="400" r="20" class="aff"/><text x="120" y="400" class="node">R08</text><circle cx="120" cy="440" r="20" class="aff"/><text x="120" y="440" class="node">R09</text><circle cx="120" cy="480" r="20" class="aff"/><text x="120" y="480" class="node">R10</text>
  </g>
  <g>
    <circle cx="360" cy="120" r="20" class="aff"/><text x="360" y="120" class="node">D01</text><circle cx="360" cy="160" r="20" class="aff"/><text x="360" y="160" class="node">D02</text><circle cx="360" cy="200" r="20" class="aff"/><text x="360" y="200" class="node">D03</text><circle cx="360" cy="240" r="20" class="aff"/><text x="360" y="240" class="node">D04</text><circle cx="360" cy="280" r="20" class="aff"/><text x="360" y="280" class="node">D05</text><circle cx="360" cy="320" r="20" class="aff"/><text x="360" y="320" class="node">D06</text><circle cx="360" cy="360" r="20" class="aff"/><text x="360" y="360" class="node">D07</text><circle cx="360" cy="400" r="20" class="aff"/><text x="360" y="400" class="node">D08</text><circle cx="360" cy="440" r="20" class="aff"/><text x="360" y="440" class="node">D09</text><circle cx="360" cy="480" r="20" class="aff"/><text x="360" y="480" class="node">D10</text>
  </g>
  <g>
    <circle cx="600" cy="120" r="20" class="aff"/><text x="600" y="120" class="node">C01</text><circle cx="600" cy="160" r="20" class="aff"/><text x="600" y="160" class="node">C02</text><circle cx="600" cy="200" r="20" class="aff"/><text x="600" y="200" class="node">C03</text><circle cx="600" cy="240" r="20" class="aff"/><text x="600" y="240" class="node">C04</text><circle cx="600" cy="280" r="20" class="aff"/><text x="600" y="280" class="node">C05</text><circle cx="600" cy="320" r="20" class="aff"/><text x="600" y="320" class="node">C06</text><circle cx="600" cy="360" r="20" class="aff"/><text x="600" y="360" class="node">C07</text><circle cx="600" cy="400" r="20" class="aff"/><text x="600" y="400" class="node">C08</text><circle cx="600" cy="440" r="20" class="aff"/><text x="600" y="440" class="node">C09</text><circle cx="600" cy="480" r="20" class="aff"/><text x="600" y="480" class="node">C10</text>
  </g>
  <g>
    <circle cx="840" cy="120" r="20" class="aff"/><text x="840" y="120" class="node">T01</text><circle cx="840" cy="160" r="20" class="aff"/><text x="840" y="160" class="node">T02</text><circle cx="840" cy="200" r="20" class="aff"/><text x="840" y="200" class="node">T03</text><circle cx="840" cy="240" r="20" class="aff"/><text x="840" y="240" class="node">T04</text><circle cx="840" cy="280" r="20" class="aff"/><text x="840" y="280" class="node">T05</text><circle cx="840" cy="320" r="20" class="aff"/><text x="840" y="320" class="node">T06</text><circle cx="840" cy="360" r="20" class="aff"/><text x="840" y="360" class="node">T07</text><circle cx="840" cy="400" r="20" class="aff"/><text x="840" y="400" class="node">T08</text><circle cx="840" cy="440" r="20" class="aff"/><text x="840" y="440" class="node">T09</text><circle cx="840" cy="480" r="20" class="aff"/><text x="840" y="480" class="node">T10</text>
  </g>
  <path d="M140 120 C210 110 290 110 340 120" class="line"/><path d="M140 120 C220 140 280 180 340 200" class="line"/><path d="M140 160 C220 160 280 160 340 160" class="line"/><path d="M140 200 C215 180 285 140 340 120" class="line"/><path d="M140 240 C220 230 285 210 340 200" class="line"/><path d="M140 280 C220 280 285 280 340 280" class="line"/><path d="M140 320 C220 320 285 320 340 320" class="line"/><path d="M140 360 C220 360 285 360 340 360" class="line"/><path d="M140 400 C220 400 285 400 340 400" class="line"/><path d="M140 440 C220 440 285 440 340 440" class="line"/><path d="M140 480 C220 455 285 420 340 400" class="line"/><path d="M140 480 C220 480 285 480 340 480" class="line"/>
  <path d="M380 120 C445 120 520 120 580 120" class="line"/><path d="M380 120 C450 140 515 180 580 200" class="line"/><path d="M380 160 C445 160 520 160 580 160" class="line"/><path d="M380 200 C445 200 520 200 580 200" class="line"/><path d="M380 240 C445 240 520 240 580 240" class="line"/><path d="M380 280 C445 280 520 280 580 280" class="line"/><path d="M380 320 C445 320 520 320 580 320" class="line"/><path d="M380 360 C445 360 520 360 580 360" class="line"/><path d="M380 400 C445 400 520 400 580 400" class="line"/><path d="M380 440 C445 440 520 440 580 440" class="line"/><path d="M380 480 C445 455 520 420 580 400" class="line"/><path d="M380 480 C445 480 520 480 580 480" class="line"/>
  <path d="M620 120 C690 120 760 120 820 120" class="line"/><path d="M620 120 C700 135 755 185 820 200" class="line"/><path d="M620 160 C690 160 760 160 820 160" class="line"/><path d="M620 200 C690 200 760 200 820 200" class="line"/><path d="M620 240 C690 240 760 240 820 240" class="line"/><path d="M620 280 C690 280 760 280 820 280" class="line"/><path d="M620 320 C690 320 760 320 820 320" class="line"/><path d="M620 360 C690 360 760 360 820 360" class="line"/><path d="M620 400 C690 400 760 400 820 400" class="line"/><path d="M620 440 C690 440 760 440 820 440" class="line"/><path d="M620 480 C690 455 760 420 820 400" class="line"/><path d="M620 480 C690 480 760 480 820 480" class="line"/>
  <path d="M335 110 L335 330 L385 330 L385 110 Z" class="group"/><path d="M575 110 L575 330 L625 330 L625 110 Z" class="group"/><path d="M335 355 L335 505 L385 505 L385 355 Z" class="group"/><path d="M575 355 L575 505 L625 505 L625 355 Z" class="group"/>
</svg>
