<svg xmlns="http://www.w3.org/2000/svg" width="900" height="680" viewBox="0 0 900 680">
  <defs><marker id="arrow" markerWidth="10" markerHeight="10" refX="8" refY="3" orient="auto"><path d="M0,0 L0,6 L9,3 z" fill="#333"/></marker><style>.title{font:700 24px Arial;fill:#111}.slo{fill:#f7f7f7;stroke:#333;stroke-width:2}.txt{font:700 14px Arial;fill:#111;text-anchor:middle;dominant-baseline:middle}.edge{stroke:#333;stroke-width:1.3;fill:none;marker-end:url(#arrow)}</style></defs>
  <rect width="900" height="680" fill="#fff"/><text x="40" y="42" class="title">D4 Directed SLO Graph</text>
  <circle cx="450" cy="105" r="38" class="slo"/><text x="450" y="105" class="txt">SLO00</text><circle cx="650" cy="170" r="38" class="slo"/><text x="650" y="170" class="txt">SLO01</text><circle cx="760" cy="340" r="38" class="slo"/><text x="760" y="340" class="txt">SLO02</text><circle cx="650" cy="510" r="38" class="slo"/><text x="650" y="510" class="txt">SLO03</text><circle cx="450" cy="575" r="38" class="slo"/><text x="450" y="575" class="txt">SLO04</text><circle cx="250" cy="510" r="38" class="slo"/><text x="250" y="510" class="txt">SLO05</text><circle cx="140" cy="340" r="38" class="slo"/><text x="140" y="340" class="txt">SLO06</text><circle cx="250" cy="170" r="38" class="slo"/><text x="250" y="170" class="txt">SLO07</text><circle cx="450" cy="260" r="38" class="slo"/><text x="450" y="260" class="txt">SLO08</text><circle cx="450" cy="420" r="38" class="slo"/><text x="450" y="420" class="txt">SLO09</text>
  <path d="M486 118 L614 157" class="edge"/><path d="M668 204 L742 306" class="edge"/><path d="M742 374 L668 476" class="edge"/><path d="M614 523 L486 562" class="edge"/><path d="M414 562 L286 523" class="edge"/><path d="M232 476 L158 374" class="edge"/><path d="M158 306 L232 204" class="edge"/><path d="M286 157 L414 118" class="edge"/><path d="M450 143 L450 222" class="edge"/><path d="M450 298 L450 382" class="edge"/><path d="M450 458 L450 537" class="edge"/><path d="M412 260 C300 250 230 245 170 320" class="edge"/><path d="M488 260 C600 250 670 245 740 320" class="edge"/><path d="M488 420 C600 430 670 435 740 360" class="edge"/><path d="M412 420 C300 430 230 435 170 360" class="edge"/><path d="M280 196 L620 484" class="edge"/><path d="M620 196 L280 484" class="edge"/><path d="M178 340 L412 105" class="edge"/><path d="M722 340 L488 105" class="edge"/><path d="M488 575 L722 340" class="edge"/><path d="M412 575 L178 340" class="edge"/>
</svg>
